<?xml version="1.0" standalone="no"?>
<!DOCTYPE svg PUBLIC "-//W3C//DTD SVG 20010904//EN"
 "http://www.w3.org/TR/2001/REC-SVG-20010904/DTD/svg10.dtd">
<svg version="1.0" xmlns="http://www.w3.org/2000/svg"
 width="175.000000pt" height="175.000000pt" viewBox="0 0 175.000000 175.000000"
 preserveAspectRatio="xMidYMid meet">
<metadata>
Created by potrace 1.14, written by Peter Selinger 2001-2017
</metadata>
<g transform="translate(0.000000,175.000000) scale(0.100000,-0.100000)"
fill="#000000" stroke="none">
<path d="M886 1691 c-2 -3 17 -21 42 -40 170 -124 265 -380 223 -601 -31 -160
-131 -311 -260 -393 -24 -15 -14 0 35 48 89 90 137 185 149 295 4 40 4 42 -7
20 -72 -158 -82 -173 -145 -235 -63 -63 -136 -109 -216 -135 -50 -16 -182 -21
-238 -9 -75 16 -181 74 -238 131 -30 29 -50 47 -46 39 5 -9 4 -12 -2 -8 -6 4
-13 19 -17 34 -3 16 -14 57 -24 93 -19 67 -23 235 -8 310 l7 35 -20 -35 c-29
-54 -78 -205 -96 -295 -25 -129 -25 -289 -1 -385 65 -251 254 -418 551 -487
111 -26 375 -21 451 7 13 5 24 8 24 5 0 -2 37 9 83 24 217 74 380 194 488 358
119 183 150 394 93 643 -21 89 -66 220 -77 220 -4 0 -5 -5 -2 -11 16 -25 36
-140 40 -223 2 -49 3 -87 1 -85 -2 2 -13 42 -25 89 -74 295 -282 499 -586 575
-67 16 -173 26 -179 16z"/>
</g>
</svg>
